<?xml version="1.0" encoding="utf-8"?>
<svg xmlns="http://www.w3.org/2000/svg" height="24" width="24" viewBox="0 0 24 24">
  <g>
    <ellipse cy="12" cx="12" ry="12" rx="12" fill="#CB88BB" />
    <path id="path1" transform="rotate(0,12,12) translate(0,0) scale(0.75,0.75)  " fill="#0479AF" d="M13.405003,10.924162L13.405003,21.076035 20.657997,16.000097z M12.470628,8.0050735C12.650002,8.0166988,12.826002,8.0766983,12.978003,8.1841965L22.974995,15.181108C23.242994,15.368106 23.401995,15.674102 23.401995,16.000097 23.401995,16.326094 23.242994,16.63209 22.974995,16.820087L12.978003,23.816999C12.807003,23.936998 12.607003,23.996998 12.405004,23.996998 12.247004,23.996998 12.089004,23.959997 11.943004,23.883999 11.613004,23.712002 11.405004,23.370005 11.405004,22.997009L11.405004,9.0031862C11.405004,8.6301908 11.613004,8.2881956 11.943004,8.1161976 12.108503,8.0301991 12.291253,7.9934492 12.470628,8.0050735z M16,2C8.2799988,2 2,8.2800293 2,16 2,23.720032 8.2799988,30 16,30 23.720001,30 30,23.720032 30,16 30,8.2800293 23.720001,2 16,2z M16,0C24.822006,0 32,7.1780396 32,16 32,24.822021 24.822006,32 16,32 7.178009,32 0,24.822021 0,16 0,7.1780396 7.178009,0 16,0z" />
  </g>
</svg>